# xmcd
# 
# Track frame offsets:
#     183
#     3100
#     28068
#     46253
#     67868
#     82985
#     106198
#     118445
#     136510
#     166373
#     172570
#     193718
#     213078
#     216800
#     239388
#     268143
#     278258
#     292500
#     304775
# 
# Disc length: 4200
# 
# Revision: 22
# Processed by: cddbd v1.5.2PL0 Copyright (c) Steve Scherf et al.
# Submitted via: fre:ac v1.0.31
# 
DISCID=ee106613
DTITLE=Paul McCartney - Tripping The Live Fantastic [CD 1)
DYEAR=1990
DGENRE=Pop
TTITLE0=Showtime
TTITLE1=Figure Of Eight
TTITLE2=Jet
TTITLE3=Rough Ride
TTITLE4=Got To Get You Into My Life
TTITLE5=Band On The Run
TTITLE6=Birthday
TTITLE7=Ebony And Ivory
TTITLE8=We Got Married
TTITLE9=Inner City Madness
TTITLE10=Maybe I'm Amazed
TTITLE11=The Long And Winding Road
TTITLE12=Crackin' Up
TTITLE13=The Fool On The Hill
TTITLE14=Sgt. Pepper's Lonely Hearts Club Band
TTITLE15=Can't Buy Me Love
TTITLE16=Matchbox
TTITLE17=Put It There
TTITLE18=Together
EXTD=YEAR: 1990
EXTT0=
EXTT1=
EXTT2=
EXTT3=
EXTT4=
EXTT5=
EXTT6=
EXTT7=
EXTT8=
EXTT9=
EXTT10=
EXTT11=
EXTT12=
EXTT13=
EXTT14=
EXTT15=
EXTT16=
EXTT17=
EXTT18=
PLAYORDER=
